<svg id="Logo" xmlns="http://www.w3.org/2000/svg" width="140" height="140" viewBox="0 0 140 140">
  <circle id="Ellipse_1" data-name="Ellipse 1" cx="70" cy="70" r="70" fill="#f8b808"/>
  <g id="Cookinghat" transform="translate(27.191 24.321)">
    <path id="Path_68" data-name="Path 68" d="M640.546,675.542c-24.343,10.678-46.253-1.261-46.253-1.261s5.356-14.453,0-40.836c0,0,8.52-6.889,19.974,0" transform="translate(-572.684 -588.838)" fill="none" stroke="#fff" stroke-miterlimit="10" stroke-width="5"/>
    <path id="Path_69" data-name="Path 69" d="M674.084,684.881c-3.741-8.242-5.958-22.277-3.563-33.548" transform="translate(-606.223 -598.178)" fill="none" stroke="#fff" stroke-miterlimit="10" stroke-width="5"/>
    <path id="Path_70" data-name="Path 70" d="M576.963,619.635c-8.329,7.094-23.908-3.677-21.388-18.434,1.394-8.165,8.483-15.089,16.728-15.879a19.285,19.285,0,0,1,19.439,12.415" transform="translate(-555.302 -568.716)" fill="none" stroke="#fff" stroke-miterlimit="10" stroke-width="5"/>
    <path id="Path_71" data-name="Path 71" d="M599.422,574.141c-.407-8.043,5.7-15.666,13.432-17.924s16.448.449,22.279,6,8.918,13.608,9.374,21.649" transform="translate(-574.963 -555.42)" fill="none" stroke="#fff" stroke-miterlimit="10" stroke-width="5"/>
    <path id="Path_72" data-name="Path 72" d="M666.554,583.167c10.573-3.754,21.832,6.8,18.564,24.034a18.064,18.064,0,0,1-5.155,9.317,16.612,16.612,0,0,1-12.072,4.545,20.643,20.643,0,0,1-12.155-4.684" transform="translate(-600.076 -567.452)" fill="none" stroke="#fff" stroke-miterlimit="10" stroke-width="5"/>
    <path id="Path_73" data-name="Path 73" d="M597.627,692.405s11.213,5.682,23.536,5.039" transform="translate(-574.171 -616.488)" fill="none" stroke="#fff" stroke-miterlimit="10" stroke-width="5"/>
  </g>
</svg>
